<svg width="10" height="8" viewBox="0 0 10 8" fill="none" xmlns="http://www.w3.org/2000/svg">
<path d="M0.375794 0.38295C0.0264874 0.749251 0.00985372 0.915751 0.00985372 3.76291C0.00985372 7.84216 -0.455888 7.49251 5.01658 7.49251C10.4558 7.49251 9.99004 7.84216 9.99004 3.76291C9.99004 0.849151 9.99004 0.815851 9.5742 0.416251L9.175 0H4.95005C0.758368 0 0.725101 0 0.375794 0.38295ZM9.40787 0.666001C9.5742 0.849151 9.674 1.0323 9.64074 1.0656C9.14173 1.5318 5.64866 4.44556 5.38252 4.62871C5.04985 4.84516 4.95005 4.84516 4.60074 4.59541C4.05183 4.24576 0.442329 1.1655 0.375794 0.999002C0.342527 0.932401 0.442329 0.749251 0.592031 0.599401C0.824903 0.366301 1.40708 0.333 4.98332 0.333C8.89222 0.333 9.12509 0.34965 9.40787 0.666001ZM4.63401 5.01166C5.19955 5.22811 5.56549 5.01166 7.66133 3.19681L9.5742 1.54845L9.6241 4.04596C9.64074 5.41126 9.6241 6.59341 9.55757 6.64336C9.50767 6.69331 8.94212 6.19381 8.31005 5.51116C7.66133 4.84516 7.09579 4.34566 7.04589 4.39561C6.97935 4.44556 7.4451 5.01166 8.04391 5.64436C8.65935 6.27706 9.15836 6.87646 9.15836 6.97636C9.15836 7.17616 0.991239 7.24276 0.775002 7.04296C0.725101 6.97636 1.20748 6.37696 1.87282 5.71096C2.52153 5.04496 3.00391 4.44556 2.93738 4.37896C2.85421 4.31236 2.3053 4.79521 1.68985 5.44456C1.09104 6.11056 0.525497 6.66001 0.458962 6.66001C0.392428 6.66001 0.342527 5.49451 0.342527 4.07926V1.4985L2.3053 3.18015C3.36985 4.09591 4.41777 4.92841 4.63401 5.01166Z" fill="black"/>
</svg>
