<svg width="10" height="11" viewBox="0 0 10 11" fill="none" xmlns="http://www.w3.org/2000/svg">
<path d="M1.26956 0.15175C0.828524 0.325013 0.324487 0.986561 0.103971 1.66386C-0.352813 3.04996 0.734016 5.52289 2.6084 7.41303C3.9315 8.73613 5.80589 9.80721 7.11323 10.012C8.45208 10.201 9.79093 9.41343 9.96419 8.31085C10.0587 7.77531 10.0429 7.75956 8.92462 7.11376C8.29457 6.75148 7.69603 6.45221 7.58577 6.45221C7.49126 6.45221 7.14474 6.73573 6.81396 7.08226C6.49894 7.42878 6.18392 7.7123 6.12091 7.7123C5.91615 7.7123 4.46704 6.76723 3.97875 6.31045C3.52197 5.90092 2.30913 4.15254 2.30913 3.91627C2.30913 3.83752 2.59265 3.5225 2.93918 3.20747C3.2857 2.8767 3.56922 2.53017 3.56922 2.43567C3.56922 2.32541 3.26995 1.74262 2.92343 1.11257C2.24613 -0.0530148 2.04136 -0.163273 1.26956 0.15175Z" fill="black"/>
</svg>
